<svg width="19" height="21" viewBox="0 0 19 21" fill="none" xmlns="http://www.w3.org/2000/svg">
<path d="M9.60476 0C7.43501 0 5.65402 1.81867 5.65402 4.03431V4.84117H1.75227L1.70328 5.59801L0.913137 20.1215L0.863358 20.9784H18.3454L18.2964 20.1207L17.5062 5.5972L17.4565 4.84117H13.5555V4.03431C13.5555 1.81867 11.7745 0 9.60476 0ZM9.60476 1.61372C10.2334 1.61372 10.8364 1.86875 11.2809 2.3227C11.7255 2.77665 11.9752 3.39233 11.9752 4.03431V4.84117H7.23432V4.03431C7.23432 3.39233 7.48406 2.77665 7.9286 2.3227C8.37315 1.86875 8.97608 1.61372 9.60476 1.61372ZM3.2338 6.4549H5.65402V8.87548H7.23432V6.4549H11.9752V8.87548H13.5555V6.4549H15.9757L16.6671 19.3647H2.54321L3.2338 6.4549Z" fill="black"/>
</svg>
