<svg width="15" height="14" viewBox="0 0 15 14" fill="none" xmlns="http://www.w3.org/2000/svg">
<path d="M1.87503 7H7.50003V7.875H1.87503V7Z" fill="#3E3E3E"/>
<path d="M0.937439 4.8125H5.62494V5.6875H0.937439V4.8125Z" fill="#3E3E3E"/>
<path d="M14.0244 7.26513L12.6182 4.20263C12.5821 4.12391 12.522 4.05682 12.4454 4.00969C12.3689 3.96255 12.2791 3.93745 12.1874 3.9375H10.7811V3.0625C10.7811 2.94647 10.7318 2.83519 10.6439 2.75314C10.5559 2.67109 10.4367 2.625 10.3124 2.625H2.8124V3.5H9.84365V8.99325C9.63005 9.10901 9.44313 9.26309 9.29364 9.44661C9.14416 9.63013 9.03509 9.83945 8.97271 10.0625H6.02709C5.91299 9.65009 5.64167 9.29067 5.26396 9.05161C4.88625 8.81256 4.42809 8.71028 3.97537 8.76395C3.52264 8.81762 3.10643 9.02355 2.80475 9.34315C2.50306 9.66275 2.33662 10.0741 2.33662 10.5C2.33662 10.9259 2.50306 11.3373 2.80475 11.6569C3.10643 11.9764 3.52264 12.1824 3.97537 12.2361C4.42809 12.2897 4.88625 12.1874 5.26396 11.9484C5.64167 11.7093 5.91299 11.3499 6.02709 10.9375H8.97271C9.07468 11.313 9.30788 11.646 9.63542 11.8839C9.96296 12.1218 10.3661 12.2509 10.7811 12.2509C11.1962 12.2509 11.5993 12.1218 11.9269 11.8839C12.2544 11.646 12.4876 11.313 12.5896 10.9375H13.5936C13.718 10.9375 13.8372 10.8914 13.9251 10.8094C14.013 10.7273 14.0624 10.616 14.0624 10.5V7.4375C14.0624 7.37823 14.0495 7.31958 14.0244 7.26513ZM4.21865 11.375C4.03323 11.375 3.85197 11.3237 3.6978 11.2275C3.54363 11.1314 3.42347 10.9947 3.35251 10.8348C3.28155 10.675 3.26299 10.499 3.29916 10.3293C3.33533 10.1596 3.42462 10.0037 3.55573 9.88128C3.68685 9.75891 3.85389 9.67558 4.03575 9.64181C4.21761 9.60805 4.40611 9.62538 4.57741 9.69161C4.74872 9.75783 4.89514 9.86998 4.99815 10.0139C5.10116 10.1578 5.15615 10.3269 5.15615 10.5C5.1559 10.732 5.05705 10.9544 4.88129 11.1185C4.70552 11.2825 4.46721 11.3748 4.21865 11.375ZM10.7811 4.8125H11.878L12.883 7H10.7811V4.8125ZM10.7811 11.375C10.5957 11.375 10.4145 11.3237 10.2603 11.2275C10.1061 11.1314 9.98597 10.9947 9.91501 10.8348C9.84405 10.675 9.82549 10.499 9.86166 10.3293C9.89784 10.1596 9.98712 10.0037 10.1182 9.88128C10.2493 9.75891 10.4164 9.67558 10.5983 9.64181C10.7801 9.60805 10.9686 9.62538 11.1399 9.69161C11.3112 9.75783 11.4576 9.86998 11.5606 10.0139C11.6637 10.1578 11.7186 10.3269 11.7186 10.5C11.7184 10.732 11.6195 10.9544 11.4438 11.1185C11.268 11.2825 11.0297 11.3748 10.7811 11.375ZM13.1249 10.0625H12.5896C12.4863 9.68775 12.2528 9.35558 11.9255 9.11805C11.5982 8.88053 11.1957 8.75108 10.7811 8.75V7.875H13.1249V10.0625Z" fill="#3E3E3E"/>
</svg>
