<svg width="21" height="20" viewBox="0 0 21 20" fill="none" xmlns="http://www.w3.org/2000/svg">
<path d="M10.664 6.66525C8.82779 6.66525 7.32931 8.16376 7.32931 10C7.32931 11.8362 8.82779 13.3348 10.664 13.3348C12.5002 13.3348 13.9987 11.8362 13.9987 10C13.9987 8.16376 12.5002 6.66525 10.664 6.66525ZM20.6656 10C20.6656 8.61907 20.6781 7.25064 20.6005 5.87221C20.523 4.27113 20.1577 2.85017 18.987 1.67938C17.8137 0.506085 16.3953 0.14334 14.7942 0.065788C13.4133 -0.0117644 12.0449 0.000744113 10.6665 0.000744113C9.28559 0.000744113 7.91719 -0.0117644 6.53879 0.065788C4.93774 0.14334 3.5168 0.508587 2.34603 1.67938C1.17276 2.85267 0.810025 4.27113 0.732474 5.87221C0.654923 7.25314 0.667431 8.62157 0.667431 10C0.667431 11.3784 0.654923 12.7494 0.732474 14.1278C0.810025 15.7289 1.17526 17.1498 2.34603 18.3206C3.5193 19.4939 4.93774 19.8567 6.53879 19.9342C7.9197 20.0118 9.28809 19.9993 10.6665 19.9993C12.0474 19.9993 13.4158 20.0118 14.7942 19.9342C16.3953 19.8567 17.8162 19.4914 18.987 18.3206C20.1602 17.1473 20.523 15.7289 20.6005 14.1278C20.6806 12.7494 20.6656 11.3809 20.6656 10ZM10.664 15.131C7.82463 15.131 5.53313 12.8394 5.53313 10C5.53313 7.16058 7.82463 4.86903 10.664 4.86903C13.5034 4.86903 15.7949 7.16058 15.7949 10C15.7949 12.8394 13.5034 15.131 10.664 15.131ZM16.005 5.8572C15.3421 5.8572 14.8067 5.32184 14.8067 4.65889C14.8067 3.99594 15.3421 3.46058 16.005 3.46058C16.6679 3.46058 17.2033 3.99594 17.2033 4.65889C17.2035 4.81631 17.1726 4.97222 17.1125 5.1177C17.0523 5.26317 16.9641 5.39535 16.8528 5.50666C16.7415 5.61798 16.6093 5.70624 16.4638 5.76639C16.3183 5.82654 16.1624 5.8574 16.005 5.8572Z" fill="black"/>
</svg>
