<svg width="22" height="21" viewBox="0 0 22 21" fill="none" xmlns="http://www.w3.org/2000/svg">
<path d="M11.482 4.495C10.7411 4.495 10.0168 4.7147 9.40076 5.12633C8.78471 5.53797 8.30456 6.12303 8.02102 6.80755C7.73749 7.49207 7.6633 8.2453 7.80785 8.97198C7.95239 9.69866 8.30918 10.3662 8.83309 10.8901C9.35699 11.414 10.0245 11.7708 10.7512 11.9153C11.4779 12.0599 12.2311 11.9857 12.9156 11.7021C13.6001 11.4186 14.1852 10.9384 14.5968 10.3224C15.0084 9.70634 15.2282 8.98206 15.2282 8.24114C15.2282 7.2476 14.8335 6.29475 14.1309 5.59222C13.4284 4.88968 12.4755 4.495 11.482 4.495ZM11.482 10.4888C11.0375 10.4888 10.6029 10.357 10.2333 10.11C9.86363 9.86304 9.57554 9.512 9.40542 9.10129C9.2353 8.69058 9.19078 8.23865 9.27751 7.80264C9.36424 7.36663 9.57831 6.96613 9.89265 6.65179C10.207 6.33744 10.6075 6.12337 11.0435 6.03664C11.4795 5.94991 11.9315 5.99443 12.3422 6.16455C12.7529 6.33467 13.1039 6.62276 13.3509 6.99239C13.5979 7.36202 13.7297 7.79659 13.7297 8.24114C13.7291 8.83708 13.4921 9.40844 13.0707 9.82984C12.6493 10.2512 12.078 10.4882 11.482 10.4888Z" fill="black"/>
<path d="M11.482 0C9.40745 0 7.37947 0.615181 5.65453 1.76775C3.92958 2.92032 2.58516 4.55851 1.79125 6.47516C0.99735 8.39181 0.789629 10.5008 1.19436 12.5355C1.59909 14.5703 2.59809 16.4393 4.06503 17.9062C5.53197 19.3731 7.40097 20.3721 9.43567 20.7769C11.4704 21.1816 13.5794 20.9739 15.4961 20.18C17.4127 19.3861 19.0509 18.0416 20.2035 16.3167C21.356 14.5918 21.9712 12.5638 21.9712 10.4892C21.9681 7.70827 20.8619 5.04214 18.8955 3.07572C16.9291 1.1093 14.263 0.00317278 11.482 0ZM6.98664 18.264V17.2323C6.98724 16.6363 7.22424 16.065 7.64563 15.6436C8.06703 15.2222 8.63839 14.9852 9.23433 14.9846H13.7297C14.3256 14.9852 14.897 15.2222 15.3184 15.6436C15.7398 16.065 15.9768 16.6363 15.9774 17.2323V18.264C14.6132 19.0605 13.0618 19.4803 11.482 19.4803C9.90226 19.4803 8.35086 19.0605 6.98664 18.264ZM17.4699 17.1768C17.4549 16.1941 17.0545 15.2565 16.3549 14.5662C15.6553 13.8759 14.7126 13.488 13.7297 13.4861H9.23433C8.25148 13.488 7.30869 13.8759 6.6091 14.5662C5.90951 15.2565 5.50911 16.1941 5.49418 17.1768C4.1355 15.9636 3.17736 14.3664 2.74663 12.5965C2.3159 10.8267 2.4329 8.96778 3.08214 7.26592C3.73138 5.56405 4.88222 4.09953 6.38229 3.06627C7.88236 2.03301 9.6609 1.47975 11.4824 1.47975C13.3039 1.47975 15.0824 2.03301 16.5825 3.06627C18.0826 4.09953 19.2334 5.56405 19.8826 7.26592C20.5319 8.96778 20.6489 10.8267 20.2182 12.5965C19.7874 14.3664 18.8293 15.9636 17.4706 17.1768H17.4699Z" fill="black"/>
</svg>
