<svg width="12" height="14" viewBox="0 0 12 14" fill="none" xmlns="http://www.w3.org/2000/svg">
<path d="M5.38131 12.8229L5.38143 12.823L6.61696 12.8241C6.61696 12.8241 6.61696 12.8241 6.61697 12.8241C9.54989 10.3362 11.05 8.049 11.05 5.93868C11.05 3.18281 8.78857 0.95 6 0.95C3.21143 0.95 0.95 3.18281 0.95 5.93868C0.95 8.00196 2.38392 10.2334 5.1873 12.6566L5.18746 12.6568L5.38131 12.8229ZM6.05124 12.1714L6.05122 12.1714C6.03705 12.1835 6.01888 12.1902 6 12.1902C5.98112 12.1902 5.96295 12.1835 5.94878 12.1714L5.75782 12.0081C5.75779 12.0081 5.75775 12.008 5.75772 12.008C3.11032 9.72004 1.81923 7.68913 1.81923 5.93868C1.81923 4.84383 2.25955 3.7937 3.04353 3.01934C3.82753 2.24495 4.89099 1.8098 6 1.8098C6.54911 1.8098 7.09283 1.91663 7.60011 2.12417C8.10739 2.33172 8.56828 2.6359 8.95647 3.01934C9.34466 3.40277 9.65256 3.85793 9.86261 4.35883C10.0727 4.85972 10.1808 5.39655 10.1808 5.93868C10.1808 7.73075 8.82715 9.81632 6.05124 12.1714ZM7.39496 4.55996C7.02489 4.19443 6.5231 3.98919 6 3.98919C5.47691 3.98919 4.97511 4.19443 4.60504 4.55996C4.23495 4.92551 4.02692 5.42144 4.02692 5.93868C4.02692 6.45592 4.23495 6.95184 4.60504 7.31739C4.97511 7.68293 5.47691 7.88817 6 7.88817C6.5231 7.88817 7.02489 7.68293 7.39496 7.31739C7.76505 6.95184 7.97308 6.45592 7.97308 5.93868C7.97308 5.42144 7.76505 4.92551 7.39496 4.55996ZM5.21924 5.16837C5.42621 4.96394 5.70704 4.84898 6 4.84898C6.29296 4.84898 6.57379 4.96394 6.78076 5.16837C6.9877 5.37277 7.10385 5.64987 7.10385 5.93868C7.10385 6.22748 6.9877 6.50459 6.78076 6.70899C6.57379 6.91342 6.29296 7.02837 6 7.02837C5.70704 7.02837 5.42621 6.91342 5.21924 6.70899C5.0123 6.50459 4.89615 6.22748 4.89615 5.93868C4.89615 5.64987 5.0123 5.37277 5.21924 5.16837Z" fill="#3E3E3E" stroke="#3E3E3E" stroke-width="0.1"/>
</svg>
