<svg width="12" height="9" viewBox="0 0 12 9" fill="none" xmlns="http://www.w3.org/2000/svg">
<path d="M0 1.5C0 1.10218 0.158035 0.720644 0.43934 0.43934C0.720644 0.158035 1.10218 0 1.5 0H10.5C10.8978 0 11.2794 0.158035 11.5607 0.43934C11.842 0.720644 12 1.10218 12 1.5V7.5C12 7.89782 11.842 8.27936 11.5607 8.56066C11.2794 8.84196 10.8978 9 10.5 9H1.5C1.10218 9 0.720644 8.84196 0.43934 8.56066C0.158035 8.27936 0 7.89782 0 7.5V1.5ZM1.5 0.75C1.30109 0.75 1.11032 0.829018 0.96967 0.96967C0.829018 1.11032 0.75 1.30109 0.75 1.5V2.25H11.25V1.5C11.25 1.30109 11.171 1.11032 11.0303 0.96967C10.8897 0.829018 10.6989 0.75 10.5 0.75H1.5ZM11.25 3.75H0.75V7.5C0.75 7.69891 0.829018 7.88968 0.96967 8.03033C1.11032 8.17098 1.30109 8.25 1.5 8.25H10.5C10.6989 8.25 10.8897 8.17098 11.0303 8.03033C11.171 7.88968 11.25 7.69891 11.25 7.5V3.75Z" fill="#3E3E3E"/>
</svg>
