<svg width="18" height="21" viewBox="0 0 18 21" fill="none" xmlns="http://www.w3.org/2000/svg">
<path d="M12.8447 20.1716C12.8447 20.3855 12.7672 20.5908 12.6291 20.7421C12.4911 20.8934 12.3039 20.9784 12.1087 20.9784H6.22028C6.02506 20.9784 5.83785 20.8934 5.69981 20.7421C5.56178 20.5908 5.48423 20.3855 5.48423 20.1716C5.48423 19.9576 5.56178 19.7523 5.69981 19.601C5.83785 19.4497 6.02506 19.3647 6.22028 19.3647H12.1087C12.3039 19.3647 12.4911 19.4497 12.6291 19.601C12.7672 19.7523 12.8447 19.9576 12.8447 20.1716ZM17.7076 16.9438C17.58 17.1903 17.3948 17.395 17.171 17.5369C16.9472 17.6788 16.693 17.7527 16.4345 17.751H1.89443C1.63562 17.7506 1.38147 17.6754 1.15762 17.533C0.933762 17.3906 0.748113 17.186 0.619388 16.9399C0.490663 16.6938 0.423413 16.4148 0.424419 16.1311C0.425425 15.8474 0.494651 15.569 0.625118 15.3239C1.17136 14.2937 1.82267 12.3385 1.82267 8.87548V8.06862C1.8202 5.93144 2.5923 3.88072 3.96911 2.36757C5.34592 0.854417 7.21467 0.00278014 9.16428 0L9.2204 0.000201797C13.2383 0.0328797 16.507 3.69321 16.507 8.1598V8.87548C16.507 12.3387 17.1579 14.294 17.704 15.3243C17.8359 15.5695 17.9058 15.8489 17.9064 16.1335C17.907 16.4182 17.8384 16.6979 17.7076 16.9438ZM16.4345 16.1372C15.7941 14.933 15.0349 12.698 15.0349 8.87548V8.1598C15.0349 4.57652 12.4216 1.64005 9.20946 1.61393C9.19452 1.61381 9.17959 1.61374 9.16465 1.61372C7.60541 1.61642 6.11101 2.29801 5.01019 3.50853C3.90938 4.71906 3.29232 6.35937 3.29476 8.06862V8.87548C3.29476 12.698 2.53507 14.933 1.89774 16.1349L16.4345 16.1372Z" fill="black"/>
</svg>
